<?xml version="1.0" standalone="no"?>
<!DOCTYPE svg PUBLIC "-//W3C//DTD SVG 20010904//EN"
 "http://www.w3.org/TR/2001/REC-SVG-20010904/DTD/svg10.dtd">
<svg version="1.0" xmlns="http://www.w3.org/2000/svg"
 width="512.000000pt" height="512.000000pt" viewBox="0 0 512.000000 512.000000"
 preserveAspectRatio="xMidYMid meet">
<metadata>
Created by potrace 1.14, written by Peter Selinger 2001-2017
</metadata>
<g transform="translate(0.000000,512.000000) scale(0.100000,-0.100000)"
fill="#000000" stroke="none">
<path d="M3892 5099 c-124 -32 -273 -117 -409 -234 -82 -70 -3435 -3418 -3465
-3458 -42 -58 13 -146 82 -131 70 15 392 123 520 174 198 80 457 201 570 268
19 11 51 29 70 40 19 11 51 28 70 39 24 14 43 17 60 12 206 -62 416 -105 610
-124 36 -3 76 -8 90 -10 14 -3 70 -7 125 -11 97 -5 166 -10 193 -13 9 -1 2
-16 -20 -43 -18 -24 -36 -47 -41 -53 -4 -5 -21 -28 -38 -50 -94 -120 -78 -202
62 -315 45 -36 86 -70 93 -75 6 -6 65 -55 131 -109 66 -55 124 -103 129 -107
8 -7 -3 -100 -20 -184 -3 -11 -7 -38 -10 -60 -4 -22 -7 -41 -8 -42 -1 -1 -153
-28 -221 -39 -16 -2 -41 -6 -55 -9 -14 -2 -45 -7 -70 -10 -54 -7 -46 -6 -300
-49 -113 -19 -221 -37 -240 -40 -19 -3 -46 -8 -60 -11 -14 -3 -77 -14 -140
-25 -63 -12 -126 -23 -140 -25 -14 -3 -74 -14 -135 -25 -60 -11 -121 -22 -135
-25 -13 -2 -42 -7 -64 -11 -22 -3 -43 -7 -46 -9 -3 -1 -27 -6 -55 -9 -27 -4
-57 -9 -65 -11 -8 -2 -30 -7 -48 -10 -18 -3 -64 -12 -102 -20 -38 -8 -84 -17
-102 -20 -18 -4 -51 -10 -73 -15 -22 -5 -56 -12 -75 -15 -29 -5 -114 -22 -305
-61 -101 -20 -112 -150 -14 -167 14 -3 97 10 185 28 87 18 173 35 189 38 23 4
346 66 480 92 11 2 34 7 50 10 17 3 68 13 115 21 113 20 118 21 245 45 61 11
119 22 130 24 11 1 38 6 60 10 22 3 90 15 150 25 116 20 161 28 210 36 17 3
37 7 45 9 8 2 35 6 60 9 25 3 54 8 65 10 11 2 40 7 65 11 25 4 52 9 61 10 9 2
40 6 69 10 29 4 62 9 74 11 45 9 206 34 252 39 27 3 56 8 64 10 8 2 38 7 65
10 28 4 61 8 75 10 33 6 165 25 215 31 l40 6 -37 -32 c-47 -39 -52 -87 -13
-125 29 -30 62 -31 118 -6 71 33 107 85 107 157 0 30 3 34 28 35 15 0 34 2 42
3 17 4 104 14 188 22 48 4 54 3 37 -7 -41 -26 -56 -52 -51 -92 7 -65 62 -91
129 -61 75 34 117 88 117 151 0 43 0 43 38 44 20 0 44 2 52 4 8 1 44 5 78 8
l63 6 447 -262 c482 -281 496 -287 544 -240 25 25 29 83 8 108 -12 14 -114 78
-230 142 -95 54 -456 266 -464 274 -6 5 8 10 35 10 24 1 53 3 64 4 32 4 183
15 270 20 208 13 207 13 232 38 54 53 16 138 -63 140 -35 1 -246 -10 -334 -18
-19 -2 -80 -6 -135 -10 -55 -3 -107 -8 -115 -10 -8 -2 -53 -6 -100 -10 -47 -3
-96 -8 -110 -10 -14 -2 -54 -7 -90 -10 -157 -15 -262 -26 -291 -31 -24 -3 -93
47 -304 224 -11 9 -45 37 -75 62 -30 25 -57 47 -60 50 -3 3 -25 21 -50 40 -45
35 -83 66 -104 85 -6 6 -33 28 -61 50 -27 22 -59 48 -70 57 -11 10 -29 24 -40
31 -19 14 -18 16 10 53 51 68 171 218 204 254 17 19 41 49 53 66 15 23 38 36
77 49 439 137 842 617 960 1140 31 142 37 194 46 402 10 254 46 336 306 703
25 36 54 87 63 113 10 27 23 53 30 58 6 5 82 64 169 130 86 66 164 133 172
149 53 103 6 214 -105 248 -30 9 -72 18 -168 37 -13 2 -31 6 -40 9 -9 3 -28 7
-42 10 -138 24 -149 28 -182 70 -101 127 -214 206 -358 251 -82 25 -219 27
-308 4z m-882 -3415 c0 -3 -31 -45 -68 -92 -122 -157 -134 -180 -120 -250 11
-60 31 -82 208 -227 85 -70 161 -133 167 -139 10 -9 9 -31 -3 -106 -9 -52 -20
-99 -24 -103 -5 -6 -115 75 -140 103 -3 4 -52 44 -110 90 -58 47 -107 87 -110
90 -3 3 -54 46 -115 95 -60 50 -119 97 -130 107 -11 9 -48 40 -82 68 l-63 52
47 60 c130 165 180 221 198 224 11 1 61 5 110 8 105 7 188 16 194 22 7 6 41 5
41 -2z m450 -922 l45 -39 -65 -7 c-36 -4 -73 -10 -84 -13 -17 -5 -18 -1 -12
43 4 27 10 59 13 71 5 23 5 23 32 3 14 -10 46 -37 71 -58z m-525 -37 c6 -6 25
-21 44 -34 40 -29 31 -37 -56 -46 l-61 -7 9 48 c14 75 16 79 37 63 9 -7 22
-18 27 -24z"/>
</g>
</svg>
